<mxfile host="app.diagrams.net" agent="Mozilla/5.0 (Windows NT 10.0; Win64; x64; rv:135.0) Gecko/20100101 Firefox/135.0" version="26.0.11">
  <diagram name="Page-1" id="ciRVs-w4cNIXQWkYEMPc">
    <mxGraphModel dx="2294" dy="1973" grid="1" gridSize="10" guides="1" tooltips="1" connect="1" arrows="1" fold="1" page="1" pageScale="1" pageWidth="850" pageHeight="1100" math="0" shadow="0">
      <root>
        <mxCell id="0" />
        <mxCell id="1" parent="0" />
        <mxCell id="GWbA9KfsbiXijk1qvNTp-13" value="" style="whiteSpace=wrap;html=1;aspect=fixed;shadow=0;glass=1;fillColor=#dae8fc;strokeColor=#6c8ebf;gradientColor=none;rounded=0;movable=0;resizable=0;rotatable=0;deletable=0;editable=0;locked=1;connectable=0;" parent="1" vertex="1">
          <mxGeometry x="50" y="-10" width="810" height="810" as="geometry" />
        </mxCell>
        <mxCell id="GWbA9KfsbiXijk1qvNTp-1" value="" style="image;points=[];aspect=fixed;html=1;align=center;shadow=0;dashed=0;image=img/lib/allied_telesis/switch/Switch_48_port_L2.svg;" parent="1" vertex="1">
          <mxGeometry x="347" y="450" width="78" height="52.8" as="geometry" />
        </mxCell>
        <mxCell id="GWbA9KfsbiXijk1qvNTp-2" value="" style="image;points=[];aspect=fixed;html=1;align=center;shadow=0;dashed=0;image=img/lib/allied_telesis/switch/Switch_48_port_L2.svg;" parent="1" vertex="1">
          <mxGeometry x="590" y="450" width="78" height="52.8" as="geometry" />
        </mxCell>
        <mxCell id="GWbA9KfsbiXijk1qvNTp-3" value="" style="image;points=[];aspect=fixed;html=1;align=center;shadow=0;dashed=0;image=img/lib/allied_telesis/switch/Switch_48_port_L2.svg;" parent="1" vertex="1">
          <mxGeometry x="130" y="450" width="78" height="52.8" as="geometry" />
        </mxCell>
        <mxCell id="GWbA9KfsbiXijk1qvNTp-19" style="edgeStyle=orthogonalEdgeStyle;rounded=0;orthogonalLoop=1;jettySize=auto;html=1;" parent="1" source="GWbA9KfsbiXijk1qvNTp-5" target="GWbA9KfsbiXijk1qvNTp-6" edge="1">
          <mxGeometry relative="1" as="geometry" />
        </mxCell>
        <mxCell id="GWbA9KfsbiXijk1qvNTp-5" value="" style="image;points=[];aspect=fixed;html=1;align=center;shadow=0;dashed=0;image=img/lib/allied_telesis/switch/Switch_24_port_L3.svg;" parent="1" vertex="1">
          <mxGeometry x="330" y="279" width="74.4" height="51" as="geometry" />
        </mxCell>
        <mxCell id="GWbA9KfsbiXijk1qvNTp-27" style="rounded=0;orthogonalLoop=1;jettySize=auto;html=1;strokeColor=default;edgeStyle=orthogonalEdgeStyle;" parent="1" source="GWbA9KfsbiXijk1qvNTp-6" edge="1">
          <mxGeometry relative="1" as="geometry">
            <mxPoint x="740" y="304.5" as="targetPoint" />
          </mxGeometry>
        </mxCell>
        <mxCell id="GWbA9KfsbiXijk1qvNTp-32" style="edgeStyle=orthogonalEdgeStyle;rounded=0;orthogonalLoop=1;jettySize=auto;html=1;" parent="1" source="GWbA9KfsbiXijk1qvNTp-6" target="GWbA9KfsbiXijk1qvNTp-5" edge="1">
          <mxGeometry relative="1" as="geometry" />
        </mxCell>
        <mxCell id="GWbA9KfsbiXijk1qvNTp-6" value="" style="image;html=1;image=img/lib/clip_art/networking/Firewall-page1_128x128.png" parent="1" vertex="1">
          <mxGeometry x="560" y="264.5" width="80" height="80" as="geometry" />
        </mxCell>
        <mxCell id="GWbA9KfsbiXijk1qvNTp-28" style="edgeStyle=orthogonalEdgeStyle;rounded=0;orthogonalLoop=1;jettySize=auto;html=1;entryX=0.5;entryY=1;entryDx=0;entryDy=0;" parent="1" target="GWbA9KfsbiXijk1qvNTp-10" edge="1">
          <mxGeometry relative="1" as="geometry">
            <mxPoint x="779" y="274.5" as="sourcePoint" />
          </mxGeometry>
        </mxCell>
        <mxCell id="GWbA9KfsbiXijk1qvNTp-30" style="edgeStyle=orthogonalEdgeStyle;rounded=0;orthogonalLoop=1;jettySize=auto;html=1;" parent="1" target="GWbA9KfsbiXijk1qvNTp-6" edge="1">
          <mxGeometry relative="1" as="geometry">
            <mxPoint x="740" y="304.5" as="sourcePoint" />
          </mxGeometry>
        </mxCell>
        <mxCell id="GWbA9KfsbiXijk1qvNTp-10" value="" style="image;aspect=fixed;perimeter=ellipsePerimeter;html=1;align=center;shadow=0;dashed=0;spacingTop=3;image=img/lib/active_directory/internet_cloud.svg;" parent="1" vertex="1">
          <mxGeometry x="714" y="29.05" width="130" height="81.9" as="geometry" />
        </mxCell>
        <mxCell id="GWbA9KfsbiXijk1qvNTp-11" value="&lt;b&gt;&lt;font style=&quot;font-size: 19px;&quot;&gt;Internet&lt;/font&gt;&lt;/b&gt;" style="text;html=1;align=center;verticalAlign=middle;resizable=0;points=[];autosize=1;strokeColor=none;fillColor=none;" parent="1" vertex="1">
          <mxGeometry x="734" y="50" width="90" height="40" as="geometry" />
        </mxCell>
        <mxCell id="GWbA9KfsbiXijk1qvNTp-12" value="&lt;font style=&quot;font-size: 20px;&quot;&gt;&lt;b&gt;Modeme&lt;/b&gt;&lt;/font&gt;" style="text;html=1;align=center;verticalAlign=middle;resizable=0;points=[];autosize=1;strokeColor=none;fillColor=none;" parent="1" vertex="1">
          <mxGeometry x="744" y="320" width="100" height="40" as="geometry" />
        </mxCell>
        <mxCell id="GWbA9KfsbiXijk1qvNTp-29" value="&lt;b&gt;&lt;font style=&quot;font-size: 19px;&quot;&gt;Pare-feu&lt;/font&gt;&lt;/b&gt;" style="text;html=1;align=center;verticalAlign=middle;resizable=0;points=[];autosize=1;strokeColor=none;fillColor=none;" parent="1" vertex="1">
          <mxGeometry x="550" y="334.5" width="100" height="40" as="geometry" />
        </mxCell>
        <mxCell id="GWbA9KfsbiXijk1qvNTp-40" value="&lt;b&gt;&lt;font style=&quot;font-size: 16px;&quot;&gt;192.168.1.0 /24&lt;/font&gt;&lt;/b&gt;" style="text;html=1;align=center;verticalAlign=middle;resizable=0;points=[];autosize=1;strokeColor=none;fillColor=none;" parent="1" vertex="1">
          <mxGeometry x="404.4" y="264.5" width="130" height="30" as="geometry" />
        </mxCell>
        <mxCell id="GWbA9KfsbiXijk1qvNTp-41" value="&lt;b&gt;&lt;font style=&quot;font-size: 16px;&quot;&gt;172.16.0.0 /16&lt;br&gt;&lt;/font&gt;&lt;/b&gt;" style="text;html=1;align=center;verticalAlign=middle;resizable=0;points=[];autosize=1;strokeColor=none;fillColor=none;rotation=0;" parent="1" vertex="1">
          <mxGeometry x="570" y="510" width="130" height="30" as="geometry" />
        </mxCell>
        <mxCell id="GWbA9KfsbiXijk1qvNTp-47" value="&lt;b&gt;&lt;font style=&quot;font-size: 16px;&quot;&gt;172.17.0.0 /22&lt;/font&gt;&lt;/b&gt;" style="text;html=1;align=center;verticalAlign=middle;resizable=0;points=[];autosize=1;strokeColor=none;fillColor=none;rotation=0;" parent="1" vertex="1">
          <mxGeometry x="330" y="510" width="130" height="30" as="geometry" />
        </mxCell>
        <mxCell id="GWbA9KfsbiXijk1qvNTp-48" value="&lt;b&gt;&lt;font style=&quot;font-size: 16px;&quot;&gt;172.18.0.0 /18&lt;/font&gt;&lt;/b&gt;" style="text;html=1;align=center;verticalAlign=middle;resizable=0;points=[];autosize=1;strokeColor=none;fillColor=none;rotation=0;" parent="1" vertex="1">
          <mxGeometry x="104" y="510" width="130" height="30" as="geometry" />
        </mxCell>
        <mxCell id="GWbA9KfsbiXijk1qvNTp-49" value="&lt;b&gt;&lt;font style=&quot;font-size: 20px;&quot;&gt;WAN&lt;br&gt;&lt;/font&gt;&lt;/b&gt;" style="text;html=1;align=center;verticalAlign=middle;resizable=0;points=[];autosize=1;strokeColor=none;fillColor=none;fontFamily=Helvetica;fontSize=12;fontColor=default;" parent="1" vertex="1">
          <mxGeometry x="660" y="304.5" width="70" height="40" as="geometry" />
        </mxCell>
        <mxCell id="GWbA9KfsbiXijk1qvNTp-50" value="&lt;b&gt;&lt;font style=&quot;font-size: 18px;&quot;&gt;DHCP&lt;/font&gt;&lt;/b&gt;" style="text;html=1;align=center;verticalAlign=middle;resizable=0;points=[];autosize=1;strokeColor=none;fillColor=none;fontFamily=Helvetica;fontSize=12;fontColor=default;" parent="1" vertex="1">
          <mxGeometry x="660" y="259.5" width="70" height="40" as="geometry" />
        </mxCell>
        <mxCell id="GWbA9KfsbiXijk1qvNTp-51" value="&lt;b&gt;&lt;font style=&quot;font-size: 19px;&quot;&gt;ISP&lt;/font&gt;&lt;/b&gt;" style="text;html=1;align=center;verticalAlign=middle;resizable=0;points=[];autosize=1;strokeColor=none;fillColor=none;fontFamily=Helvetica;fontSize=12;fontColor=default;" parent="1" vertex="1">
          <mxGeometry x="780" y="200" width="50" height="40" as="geometry" />
        </mxCell>
        <mxCell id="GWbA9KfsbiXijk1qvNTp-52" value="&lt;b&gt;&lt;font style=&quot;font-size: 18px;&quot;&gt;LAN&lt;br&gt;&lt;/font&gt;&lt;/b&gt;" style="text;html=1;align=center;verticalAlign=middle;resizable=0;points=[];autosize=1;strokeColor=none;fillColor=none;fontFamily=Helvetica;fontSize=12;fontColor=default;" parent="1" vertex="1">
          <mxGeometry x="450" y="304.5" width="60" height="40" as="geometry" />
        </mxCell>
        <mxCell id="GWbA9KfsbiXijk1qvNTp-54" value="&lt;b&gt;&lt;font style=&quot;font-size: 16px;&quot;&gt;VLAN Travailleurs&lt;br&gt;&lt;/font&gt;&lt;/b&gt;" style="text;html=1;align=center;verticalAlign=middle;resizable=0;points=[];autosize=1;strokeColor=none;fillColor=none;fontFamily=Helvetica;fontSize=12;fontColor=default;" parent="1" vertex="1">
          <mxGeometry x="554" y="550" width="160" height="30" as="geometry" />
        </mxCell>
        <mxCell id="GWbA9KfsbiXijk1qvNTp-55" value="&lt;b&gt;&lt;font style=&quot;font-size: 16px;&quot;&gt;VLAN Technicien&lt;br&gt;&lt;/font&gt;&lt;/b&gt;" style="text;html=1;align=center;verticalAlign=middle;resizable=0;points=[];autosize=1;strokeColor=none;fillColor=none;fontFamily=Helvetica;fontSize=12;fontColor=default;" parent="1" vertex="1">
          <mxGeometry x="330" y="550" width="150" height="30" as="geometry" />
        </mxCell>
        <mxCell id="GWbA9KfsbiXijk1qvNTp-56" value="&lt;b&gt;&lt;font style=&quot;font-size: 16px;&quot;&gt;VLAN Guest&lt;/font&gt;&lt;/b&gt;" style="text;html=1;align=center;verticalAlign=middle;resizable=0;points=[];autosize=1;strokeColor=none;fillColor=none;fontFamily=Helvetica;fontSize=12;fontColor=default;" parent="1" vertex="1">
          <mxGeometry x="109" y="550" width="120" height="30" as="geometry" />
        </mxCell>
        <mxCell id="GWbA9KfsbiXijk1qvNTp-58" value="" style="container=1;collapsible=0;expand=0;recursiveResize=0;html=1;whiteSpace=wrap;strokeColor=#1192E8;fillColor=none;strokeWidth=1;shadow=0;glass=1;align=center;verticalAlign=middle;fontFamily=Helvetica;fontSize=12;fontColor=default;" parent="1" vertex="1">
          <mxGeometry x="-280" y="204.5" width="220" height="140" as="geometry" />
        </mxCell>
        <mxCell id="GWbA9KfsbiXijk1qvNTp-59" value="Classic VLAN" style="shape=rect;fillColor=none;aspect=fixed;resizable=0;labelPosition=right;verticalLabelPosition=middle;align=left;verticalAlign=middle;strokeColor=none;part=1;spacingLeft=5;fontSize=14;shadow=0;glass=1;fontFamily=Helvetica;fontColor=default;" parent="GWbA9KfsbiXijk1qvNTp-58" vertex="1">
          <mxGeometry width="48" height="48" relative="1" as="geometry" />
        </mxCell>
        <mxCell id="GWbA9KfsbiXijk1qvNTp-60" value="" style="fillColor=#1192E8;shape=mxgraph.ibm_cloud.vlan--ibm;strokeColor=none;dashed=0;outlineConnect=0;html=1;labelPosition=center;verticalLabelPosition=bottom;verticalAlign=top;part=1;movable=0;resizable=0;rotatable=0;shadow=0;glass=1;align=center;fontFamily=Helvetica;fontSize=12;fontColor=default;" parent="GWbA9KfsbiXijk1qvNTp-59" vertex="1">
          <mxGeometry width="24" height="24" relative="1" as="geometry">
            <mxPoint x="12" y="12" as="offset" />
          </mxGeometry>
        </mxCell>
        <mxCell id="GWbA9KfsbiXijk1qvNTp-61" value="" style="shape=rect;fillColor=#1192E8;aspect=fixed;resizable=0;labelPosition=right;verticalLabelPosition=middle;align=left;verticalAlign=middle;strokeColor=none;part=1;spacingLeft=5;fontSize=14;shadow=0;glass=1;fontFamily=Helvetica;fontColor=default;" parent="GWbA9KfsbiXijk1qvNTp-58" vertex="1">
          <mxGeometry width="4" height="48" relative="1" as="geometry" />
        </mxCell>
        <mxCell id="GWbA9KfsbiXijk1qvNTp-62" value="" style="container=1;collapsible=0;expand=0;recursiveResize=0;html=1;whiteSpace=wrap;strokeColor=#1192E8;fillColor=none;strokeWidth=1;shadow=0;glass=1;align=center;verticalAlign=middle;fontFamily=Helvetica;fontSize=12;fontColor=default;" parent="1" vertex="1">
          <mxGeometry x="70" y="502.8" width="220" height="207.2" as="geometry" />
        </mxCell>
        <mxCell id="GWbA9KfsbiXijk1qvNTp-63" value="" style="shape=rect;fillColor=none;aspect=fixed;resizable=0;labelPosition=right;verticalLabelPosition=middle;align=left;verticalAlign=middle;strokeColor=none;part=1;spacingLeft=5;fontSize=14;shadow=0;glass=1;fontFamily=Helvetica;fontColor=default;" parent="GWbA9KfsbiXijk1qvNTp-62" vertex="1">
          <mxGeometry width="48" height="48" relative="1" as="geometry" />
        </mxCell>
        <mxCell id="GWbA9KfsbiXijk1qvNTp-64" value="" style="fillColor=#1192E8;shape=mxgraph.ibm_cloud.vlan;strokeColor=none;dashed=0;outlineConnect=0;html=1;labelPosition=center;verticalLabelPosition=bottom;verticalAlign=top;part=1;movable=0;resizable=0;rotatable=0;shadow=0;glass=1;align=center;fontFamily=Helvetica;fontSize=12;fontColor=default;" parent="GWbA9KfsbiXijk1qvNTp-63" vertex="1">
          <mxGeometry width="24" height="24" relative="1" as="geometry">
            <mxPoint x="12" y="12" as="offset" />
          </mxGeometry>
        </mxCell>
        <mxCell id="GWbA9KfsbiXijk1qvNTp-65" value="" style="shape=rect;fillColor=#1192E8;aspect=fixed;resizable=0;labelPosition=right;verticalLabelPosition=middle;align=left;verticalAlign=middle;strokeColor=none;part=1;spacingLeft=5;fontSize=14;shadow=0;glass=1;fontFamily=Helvetica;fontColor=default;" parent="GWbA9KfsbiXijk1qvNTp-62" vertex="1">
          <mxGeometry width="4" height="48" relative="1" as="geometry" />
        </mxCell>
        <mxCell id="GWbA9KfsbiXijk1qvNTp-75" value="" style="fontColor=#0066CC;verticalAlign=top;verticalLabelPosition=bottom;labelPosition=center;align=center;html=1;outlineConnect=0;fillColor=#CCCCCC;strokeColor=#6881B3;gradientColor=none;gradientDirection=north;strokeWidth=2;shape=mxgraph.networks.pc;shadow=0;glass=1;fontFamily=Helvetica;fontSize=12;" parent="GWbA9KfsbiXijk1qvNTp-62" vertex="1">
          <mxGeometry x="50" y="107.19999999999999" width="100" height="70" as="geometry" />
        </mxCell>
        <mxCell id="GWbA9KfsbiXijk1qvNTp-67" value="" style="container=1;collapsible=0;expand=0;recursiveResize=0;html=1;whiteSpace=wrap;strokeColor=#1192E8;fillColor=none;strokeWidth=1;shadow=0;glass=1;align=center;verticalAlign=middle;fontFamily=Helvetica;fontSize=12;fontColor=default;" parent="1" vertex="1">
          <mxGeometry x="295" y="502.79999999999995" width="220" height="207.2" as="geometry" />
        </mxCell>
        <mxCell id="GWbA9KfsbiXijk1qvNTp-68" value="" style="shape=rect;fillColor=none;aspect=fixed;resizable=0;labelPosition=right;verticalLabelPosition=middle;align=left;verticalAlign=middle;strokeColor=none;part=1;spacingLeft=5;fontSize=14;shadow=0;glass=1;fontFamily=Helvetica;fontColor=default;" parent="GWbA9KfsbiXijk1qvNTp-67" vertex="1">
          <mxGeometry width="48" height="48" relative="1" as="geometry" />
        </mxCell>
        <mxCell id="GWbA9KfsbiXijk1qvNTp-69" value="" style="fillColor=#1192E8;shape=mxgraph.ibm_cloud.vlan;strokeColor=none;dashed=0;outlineConnect=0;html=1;labelPosition=center;verticalLabelPosition=bottom;verticalAlign=top;part=1;movable=0;resizable=0;rotatable=0;shadow=0;glass=1;align=center;fontFamily=Helvetica;fontSize=12;fontColor=default;" parent="GWbA9KfsbiXijk1qvNTp-68" vertex="1">
          <mxGeometry width="24" height="24" relative="1" as="geometry">
            <mxPoint x="12" y="12" as="offset" />
          </mxGeometry>
        </mxCell>
        <mxCell id="GWbA9KfsbiXijk1qvNTp-70" value="" style="shape=rect;fillColor=#1192E8;aspect=fixed;resizable=0;labelPosition=right;verticalLabelPosition=middle;align=left;verticalAlign=middle;strokeColor=none;part=1;spacingLeft=5;fontSize=14;shadow=0;glass=1;fontFamily=Helvetica;fontColor=default;" parent="GWbA9KfsbiXijk1qvNTp-67" vertex="1">
          <mxGeometry width="4" height="48" relative="1" as="geometry" />
        </mxCell>
        <mxCell id="GWbA9KfsbiXijk1qvNTp-76" value="" style="shape=mxgraph.signs.tech.computer;html=1;pointerEvents=1;fillColor=#000000;strokeColor=none;verticalLabelPosition=bottom;verticalAlign=top;align=center;shadow=0;glass=1;fontFamily=Helvetica;fontSize=12;fontColor=default;" parent="GWbA9KfsbiXijk1qvNTp-67" vertex="1">
          <mxGeometry x="51" y="93.20000000000005" width="98" height="98" as="geometry" />
        </mxCell>
        <mxCell id="GWbA9KfsbiXijk1qvNTp-71" value="" style="container=1;collapsible=0;expand=0;recursiveResize=0;html=1;whiteSpace=wrap;strokeColor=#1192E8;fillColor=none;strokeWidth=1;shadow=0;glass=1;align=center;verticalAlign=middle;fontFamily=Helvetica;fontSize=12;fontColor=default;" parent="1" vertex="1">
          <mxGeometry x="520" y="502.79999999999995" width="220" height="207.2" as="geometry" />
        </mxCell>
        <mxCell id="GWbA9KfsbiXijk1qvNTp-72" value="" style="shape=rect;fillColor=none;aspect=fixed;resizable=0;labelPosition=right;verticalLabelPosition=middle;align=left;verticalAlign=middle;strokeColor=none;part=1;spacingLeft=5;fontSize=14;shadow=0;glass=1;fontFamily=Helvetica;fontColor=default;" parent="GWbA9KfsbiXijk1qvNTp-71" vertex="1">
          <mxGeometry width="48" height="48" relative="1" as="geometry" />
        </mxCell>
        <mxCell id="GWbA9KfsbiXijk1qvNTp-73" value="" style="fillColor=#1192E8;shape=mxgraph.ibm_cloud.vlan;strokeColor=none;dashed=0;outlineConnect=0;html=1;labelPosition=center;verticalLabelPosition=bottom;verticalAlign=top;part=1;movable=0;resizable=0;rotatable=0;shadow=0;glass=1;align=center;fontFamily=Helvetica;fontSize=12;fontColor=default;" parent="GWbA9KfsbiXijk1qvNTp-72" vertex="1">
          <mxGeometry width="24" height="24" relative="1" as="geometry">
            <mxPoint x="12" y="12" as="offset" />
          </mxGeometry>
        </mxCell>
        <mxCell id="GWbA9KfsbiXijk1qvNTp-74" value="" style="shape=rect;fillColor=#1192E8;aspect=fixed;resizable=0;labelPosition=right;verticalLabelPosition=middle;align=left;verticalAlign=middle;strokeColor=none;part=1;spacingLeft=5;fontSize=14;shadow=0;glass=1;fontFamily=Helvetica;fontColor=default;" parent="GWbA9KfsbiXijk1qvNTp-71" vertex="1">
          <mxGeometry width="4" height="48" relative="1" as="geometry" />
        </mxCell>
        <mxCell id="GWbA9KfsbiXijk1qvNTp-77" value="" style="shape=image;html=1;verticalAlign=top;verticalLabelPosition=bottom;labelBackgroundColor=#ffffff;imageAspect=0;aspect=fixed;image=https://cdn0.iconfinder.com/data/icons/job-seeker/256/laptop_job_seeker_employee_unemployee_work_1-128.png;shadow=0;glass=1;strokeColor=#6c8ebf;align=center;fontFamily=Helvetica;fontSize=12;fontColor=default;fillColor=#dae8fc;gradientColor=none;" parent="GWbA9KfsbiXijk1qvNTp-71" vertex="1">
          <mxGeometry x="46" y="77.20000000000005" width="128" height="128" as="geometry" />
        </mxCell>
        <mxCell id="GWbA9KfsbiXijk1qvNTp-85" value="" style="image;points=[];aspect=fixed;html=1;align=center;shadow=0;dashed=0;image=img/lib/allied_telesis/switch/Switch_48_port_L2.svg;" parent="1" vertex="1">
          <mxGeometry x="320" y="84.3" width="78" height="52.8" as="geometry" />
        </mxCell>
        <mxCell id="hMHz2aZoxeg0Wyyos7mc-1" value="" style="endArrow=classic;startArrow=classic;html=1;rounded=0;" edge="1" parent="1">
          <mxGeometry width="50" height="50" relative="1" as="geometry">
            <mxPoint x="360" y="280" as="sourcePoint" />
            <mxPoint x="360" y="140" as="targetPoint" />
          </mxGeometry>
        </mxCell>
        <mxCell id="hMHz2aZoxeg0Wyyos7mc-6" value="" style="endArrow=classic;startArrow=classic;html=1;rounded=0;exitX=0.408;exitY=0.085;exitDx=0;exitDy=0;exitPerimeter=0;entryX=0.582;entryY=1.06;entryDx=0;entryDy=0;entryPerimeter=0;" edge="1" parent="1" source="GWbA9KfsbiXijk1qvNTp-1" target="GWbA9KfsbiXijk1qvNTp-5">
          <mxGeometry width="50" height="50" relative="1" as="geometry">
            <mxPoint x="390" y="350" as="sourcePoint" />
            <mxPoint x="360" y="320" as="targetPoint" />
          </mxGeometry>
        </mxCell>
        <mxCell id="hMHz2aZoxeg0Wyyos7mc-7" value="" style="endArrow=classic;startArrow=classic;html=1;rounded=0;" edge="1" parent="1">
          <mxGeometry width="50" height="50" relative="1" as="geometry">
            <mxPoint x="160" y="450" as="sourcePoint" />
            <mxPoint x="340" y="320" as="targetPoint" />
          </mxGeometry>
        </mxCell>
        <mxCell id="hMHz2aZoxeg0Wyyos7mc-8" value="" style="endArrow=classic;startArrow=classic;html=1;rounded=0;" edge="1" parent="1" source="GWbA9KfsbiXijk1qvNTp-2" target="GWbA9KfsbiXijk1qvNTp-5">
          <mxGeometry width="50" height="50" relative="1" as="geometry">
            <mxPoint x="389" y="464" as="sourcePoint" />
            <mxPoint x="381" y="335" as="targetPoint" />
          </mxGeometry>
        </mxCell>
        <mxCell id="hMHz2aZoxeg0Wyyos7mc-9" value="" style="shape=mxgraph.cisco.modems_and_phones.modem;html=1;pointerEvents=1;dashed=0;fillColor=#036897;strokeColor=#ffffff;strokeWidth=2;verticalLabelPosition=bottom;verticalAlign=top;align=center;outlineConnect=0;" vertex="1" parent="1">
          <mxGeometry x="742" y="292" width="98" height="28" as="geometry" />
        </mxCell>
        <mxCell id="hMHz2aZoxeg0Wyyos7mc-11" value="Text" style="text;html=1;align=center;verticalAlign=middle;resizable=0;points=[];autosize=1;strokeColor=none;fillColor=none;" vertex="1" parent="1">
          <mxGeometry x="-315" y="-52" width="50" height="30" as="geometry" />
        </mxCell>
        <mxCell id="hMHz2aZoxeg0Wyyos7mc-12" value="" style="container=1;collapsible=0;expand=0;recursiveResize=0;html=1;whiteSpace=wrap;strokeColor=#1192E8;fillColor=none;strokeWidth=1;shadow=0;glass=1;align=center;verticalAlign=middle;fontFamily=Helvetica;fontSize=12;fontColor=default;" vertex="1" parent="1">
          <mxGeometry x="60" y="21.4" width="200" height="178.6" as="geometry" />
        </mxCell>
        <mxCell id="hMHz2aZoxeg0Wyyos7mc-13" value="" style="shape=rect;fillColor=none;aspect=fixed;resizable=0;labelPosition=right;verticalLabelPosition=middle;align=left;verticalAlign=middle;strokeColor=none;part=1;spacingLeft=5;fontSize=14;shadow=0;glass=1;fontFamily=Helvetica;fontColor=default;" vertex="1" parent="hMHz2aZoxeg0Wyyos7mc-12">
          <mxGeometry width="48" height="48" relative="1" as="geometry" />
        </mxCell>
        <mxCell id="hMHz2aZoxeg0Wyyos7mc-14" value="" style="fillColor=#1192E8;shape=mxgraph.ibm_cloud.vlan;strokeColor=none;dashed=0;outlineConnect=0;html=1;labelPosition=center;verticalLabelPosition=bottom;verticalAlign=top;part=1;movable=0;resizable=0;rotatable=0;shadow=0;glass=1;align=center;fontFamily=Helvetica;fontSize=12;fontColor=default;" vertex="1" parent="hMHz2aZoxeg0Wyyos7mc-13">
          <mxGeometry width="24" height="24" relative="1" as="geometry">
            <mxPoint x="12" y="12" as="offset" />
          </mxGeometry>
        </mxCell>
        <mxCell id="hMHz2aZoxeg0Wyyos7mc-15" value="" style="shape=rect;fillColor=#1192E8;aspect=fixed;resizable=0;labelPosition=right;verticalLabelPosition=middle;align=left;verticalAlign=middle;strokeColor=none;part=1;spacingLeft=5;fontSize=14;shadow=0;glass=1;fontFamily=Helvetica;fontColor=default;" vertex="1" parent="hMHz2aZoxeg0Wyyos7mc-12">
          <mxGeometry width="4" height="48" relative="1" as="geometry" />
        </mxCell>
        <mxCell id="hMHz2aZoxeg0Wyyos7mc-16" value="" style="outlineConnect=0;dashed=0;verticalLabelPosition=bottom;verticalAlign=top;align=center;html=1;shape=mxgraph.aws3.users;fillColor=#ACACAC;gradientColor=none;shadow=0;glass=1;strokeColor=#6c8ebf;fontFamily=Helvetica;fontSize=12;fontColor=default;" vertex="1" parent="hMHz2aZoxeg0Wyyos7mc-12">
          <mxGeometry x="50" y="90" width="90" height="70" as="geometry" />
        </mxCell>
        <mxCell id="hMHz2aZoxeg0Wyyos7mc-17" value="&lt;b&gt;&lt;font style=&quot;font-size: 19px;&quot;&gt;VLAN Recherche&lt;br&gt;&lt;/font&gt;&lt;/b&gt;" style="text;html=1;align=center;verticalAlign=middle;resizable=0;points=[];autosize=1;strokeColor=none;fillColor=none;fontFamily=Helvetica;fontSize=12;fontColor=default;" vertex="1" parent="hMHz2aZoxeg0Wyyos7mc-12">
          <mxGeometry x="10" y="38.6" width="180" height="40" as="geometry" />
        </mxCell>
        <mxCell id="hMHz2aZoxeg0Wyyos7mc-18" value="&lt;b&gt;&lt;font style=&quot;font-size: 16px;&quot;&gt;172.20.0.0 /16&lt;/font&gt;&lt;/b&gt;" style="text;html=1;align=center;verticalAlign=middle;resizable=0;points=[];autosize=1;strokeColor=none;fillColor=none;" vertex="1" parent="hMHz2aZoxeg0Wyyos7mc-12">
          <mxGeometry x="35" y="8.600000000000001" width="130" height="30" as="geometry" />
        </mxCell>
        <mxCell id="hMHz2aZoxeg0Wyyos7mc-19" value="" style="endArrow=classic;startArrow=classic;html=1;rounded=0;fontFamily=Helvetica;fontSize=12;fontColor=default;entryX=1;entryY=0.5;entryDx=0;entryDy=0;" edge="1" parent="1" target="hMHz2aZoxeg0Wyyos7mc-12">
          <mxGeometry width="50" height="50" relative="1" as="geometry">
            <mxPoint x="320" y="111" as="sourcePoint" />
            <mxPoint x="520" y="330" as="targetPoint" />
          </mxGeometry>
        </mxCell>
      </root>
    </mxGraphModel>
  </diagram>
</mxfile>
